<svg xmlns="http://www.w3.org/2000/svg" width="23.148" height="23.148" viewBox="0 0 23.148 23.148">
    <defs>
        <style>
                                    .cls-19-1 {
                                        fill: #475993;
                                    }
        </style>
    </defs>
    <path id="_001-facebook" data-name="001-facebook" class="cls-19-1" d="M20.031,0H3.121A3.119,3.119,0,0,0,0,3.119v16.91a3.119,3.119,0,0,0,3.119,3.119h8.34l.014-8.272H9.326a.507.507,0,0,1-.507-.505L8.809,11.7a.507.507,0,0,1,.507-.509h2.145V8.619C11.461,5.63,13.287,4,15.954,4h2.189a.507.507,0,0,1,.507.507V6.757a.507.507,0,0,1-.507.507H16.8c-1.451,0-1.731.689-1.731,1.7V11.2h3.187a.507.507,0,0,1,.5.567l-.316,2.666a.507.507,0,0,1-.5.447H15.083l-.014,8.272h4.962a3.119,3.119,0,0,0,3.119-3.119V3.119A3.119,3.119,0,0,0,20.031,0Z" transform="translate(-0.002)" />
</svg>