<svg id="_002-instagram" data-name="002-instagram" 
    xmlns="http://www.w3.org/2000/svg" 
    xmlns:xlink="http://www.w3.org/1999/xlink" width="23.148" height="23.148" viewBox="0 0 23.148 23.148">
    <defs>
        <style>
                                    .cls-20-1 {
                                        fill: url(#linear-gradient);
                                    }

                                    .cls-20-2 {
                                        fill: url(#linear-gradient-2);
                                    }

                                    .cls-20-3 {
                                        fill: url(#linear-gradient-3);
                                    }
        </style>
        <linearGradient id="linear-gradient" x1="0.5" y1="0.008" x2="0.5" y2="0.998" gradientUnits="objectBoundingBox">
            <stop offset="0" stop-color="#e09b3d" />
            <stop offset="0.3" stop-color="#c74c4d" />
            <stop offset="0.6" stop-color="#c21975" />
            <stop offset="1" stop-color="#7024c4" />
        </linearGradient>
        <linearGradient id="linear-gradient-2" y1="-0.451" y2="1.462" xlink:href="#linear-gradient" />
        <linearGradient id="linear-gradient-3" y1="-1.396" y2="6.586" xlink:href="#linear-gradient" />
    </defs>
    <path id="Path_237" data-name="Path 237" class="cls-20-1" d="M16.252,0H6.9A6.9,6.9,0,0,0,0,6.9v9.356a6.9,6.9,0,0,0,6.9,6.9h9.356a6.9,6.9,0,0,0,6.9-6.9V6.9A6.9,6.9,0,0,0,16.252,0ZM20.82,16.252a4.567,4.567,0,0,1-4.567,4.567H6.9a4.567,4.567,0,0,1-4.567-4.567V6.9A4.567,4.567,0,0,1,6.9,2.329h9.356A4.567,4.567,0,0,1,20.82,6.9v9.356Z" />
    <path id="Path_238" data-name="Path 238" class="cls-20-2" d="M138.987,133a5.987,5.987,0,1,0,5.987,5.987A5.994,5.994,0,0,0,138.987,133Zm0,9.645a3.658,3.658,0,1,1,3.658-3.658A3.658,3.658,0,0,1,138.987,142.645Z" transform="translate(-127.413 -127.413)" />
    <ellipse id="Ellipse_1" data-name="Ellipse 1" class="cls-20-3" cx="1.435" cy="1.435" rx="1.435" ry="1.435" transform="translate(16.138 4.198)" />
</svg>