<svg xmlns="http://www.w3.org/2000/svg" width="23.048" height="23.048" viewBox="0 0 23.048 23.048">
    <defs>
        <style>
                                    .cls-21-1 {
                                        fill: #0077b7;
                                    }
        </style>
    </defs>
    <path id="_003-linkedin" data-name="003-linkedin" class="cls-21-1" d="M20.963,0H2.085A2.085,2.085,0,0,0,0,2.085V20.963a2.085,2.085,0,0,0,2.085,2.085H20.963a2.085,2.085,0,0,0,2.085-2.085V2.085A2.085,2.085,0,0,0,20.963,0ZM7.132,19.9a.607.607,0,0,1-.607.607H3.943a.607.607,0,0,1-.607-.607V9.075a.607.607,0,0,1,.607-.607H6.525a.607.607,0,0,1,.607.607ZM5.234,7.447A2.454,2.454,0,1,1,7.687,4.994,2.454,2.454,0,0,1,5.234,7.447Zm15.4,12.5a.558.558,0,0,1-.558.558H17.3a.558.558,0,0,1-.558-.558V14.872c0-.758.222-3.32-1.98-3.32-1.708,0-2.054,1.754-2.124,2.541V19.95a.558.558,0,0,1-.558.558H9.4a.558.558,0,0,1-.558-.558V9.026A.558.558,0,0,1,9.4,8.468h2.68a.558.558,0,0,1,.558.558V9.97a3.8,3.8,0,0,1,3.579-1.684c4.438,0,4.412,4.146,4.412,6.424v5.24Z" />
</svg>