<svg xmlns="http://www.w3.org/2000/svg" width="83.661" height="39.421" viewBox="0 0 83.661 39.421">
    <defs>
        <style>
                                .cls-18-1 {
                                    fill: #ba281b;
                                }

                                .cls-18-2 {
                                    fill: #636568;
                                }

                                .cls-18-3 {
                                    fill: #ec411b;
                                }
        </style>
    </defs>
    <g id="Vector_Smart_Object_copy_4" data-name="Vector Smart Object copy 4" transform="translate(-443.66 -67.825)">
        <path id="Path_71" data-name="Path 71" class="cls-18-1" d="M570.434,95.739a27.9,27.9,0,0,0-27.887-27.913h0A27.9,27.9,0,0,0,514.66,95.739H528.8c0-.084-.006-.167-.006-.252a13.763,13.763,0,0,1,13.756-13.769h0A13.793,13.793,0,0,1,556.3,95.487c0,.085-.005.168-.006.252Z" transform="translate(-43.113)" />
        <g id="Group_14" data-name="Group 14" transform="translate(457.681 99.77)">
            <rect id="Rectangle_3" data-name="Rectangle 3" class="cls-18-2" width="1.311" height="1.459" transform="translate(52.058 4.237)" />
            <path id="Path_91" data-name="Path 91" class="cls-18-2" d="M479.473,149.4a.271.271,0,0,1,.121-.062.59.59,0,0,1,.121-.013h.663a.3.3,0,0,1,.136.029.287.287,0,0,1,.1.077.408.408,0,0,1,.064.11q.024.062.046.127l.136.561q.066-.136.16-.309a1.358,1.358,0,0,1,.25-.324,1.306,1.306,0,0,1,.391-.254,1.46,1.46,0,0,1,.586-.1,1.96,1.96,0,0,1,.984.239,2.042,2.042,0,0,1,.694.642,1.868,1.868,0,0,1,.228-.291,1.846,1.846,0,0,1,.347-.287,1.978,1.978,0,0,1,.464-.217,1.85,1.85,0,0,1,.577-.086,1.957,1.957,0,0,1,1.561.719,2.325,2.325,0,0,1,.417.779,3.094,3.094,0,0,1,.143.951v2.879a.383.383,0,0,1-.073.253.286.286,0,0,1-.23.086H486.34a.392.392,0,0,1-.259-.064.334.334,0,0,1-.07-.248v-2.906a1.019,1.019,0,0,0-.059-.352.9.9,0,0,0-.165-.284.739.739,0,0,0-.257-.189.809.809,0,0,0-.336-.068.774.774,0,0,0-.316.066.841.841,0,0,0-.263.182.87.87,0,0,0-.182.281.941.941,0,0,0-.068.363v2.879a.383.383,0,0,1-.073.253.287.287,0,0,1-.23.086h-1.015a.392.392,0,0,1-.259-.064.333.333,0,0,1-.07-.248v-2.906a1.093,1.093,0,0,0-.055-.352.856.856,0,0,0-.158-.284.726.726,0,0,0-.25-.189.779.779,0,0,0-.332-.068.791.791,0,0,0-.31.064.884.884,0,0,0-.272.18,1.012,1.012,0,0,0-.2.279.938.938,0,0,0-.094.361v2.9a.417.417,0,0,1-.028.149.239.239,0,0,1-.086.114.392.392,0,0,1-.108.048.461.461,0,0,1-.116.013h-.992a.309.309,0,0,1-.356-.339v-4.915a.32.32,0,0,1,.037-.153.276.276,0,0,1,.1-.11Z" transform="translate(-479.358 -149.203)" />
            <path id="Path_92" data-name="Path 92" class="cls-18-2" d="M503.127,152.106a2.91,2.91,0,0,1,.1-.778,2.854,2.854,0,0,1,.738-1.272,2.786,2.786,0,0,1,.582-.446,2.928,2.928,0,0,1,1.467-.387,2.863,2.863,0,0,1,2.035.833,2.9,2.9,0,0,1,.615.914,2.84,2.84,0,0,1,.226,1.136,2.886,2.886,0,0,1-.1.776,2.939,2.939,0,0,1-.29.692,2.86,2.86,0,0,1-2.483,1.42,2.937,2.937,0,0,1-.775-.1,2.842,2.842,0,0,1-1.721-1.319,2.926,2.926,0,0,1-.29-.692A2.886,2.886,0,0,1,503.127,152.106Zm1.6,0a1.607,1.607,0,0,0,.09.543,1.312,1.312,0,0,0,.255.437,1.2,1.2,0,0,0,.4.292,1.252,1.252,0,0,0,.529.108,1.2,1.2,0,0,0,.516-.108,1.161,1.161,0,0,0,.391-.292,1.289,1.289,0,0,0,.246-.437,1.739,1.739,0,0,0,0-1.079,1.384,1.384,0,0,0-.246-.448A1.147,1.147,0,0,0,506,150.7a1.215,1.215,0,0,0-.529.112,1.2,1.2,0,0,0-.4.306,1.41,1.41,0,0,0-.255.448A1.6,1.6,0,0,0,504.729,152.106Z" transform="translate(-493.791 -149.196)" />
            <path id="Path_93" data-name="Path 93" class="cls-18-2" d="M519.407,149.79a.306.306,0,0,1,.11-.257.383.383,0,0,1,.242-.086h1a.307.307,0,0,1,.246.1.355.355,0,0,1,.088.242v5.046a1.769,1.769,0,0,1-.171.769,2.043,2.043,0,0,1-.461.628,2.2,2.2,0,0,1-.665.422,2.047,2.047,0,0,1-.784.154H518.9a.34.34,0,0,1-.242-.1.309.309,0,0,1-.083-.218v-.628a.34.34,0,0,1,.1-.255.33.33,0,0,1,.239-.1h.092a.23.23,0,0,0,.162-.073.654.654,0,0,0,.127-.178,1.071,1.071,0,0,0,.081-.222.879.879,0,0,0,.028-.2Z" transform="translate(-503.173 -149.333)" />
            <g id="Group_13" data-name="Group 13" transform="translate(19.207 0)">
                <path id="Path_94" data-name="Path 94" class="cls-18-2" d="M528.374,149.363a.273.273,0,0,1,.119-.062.562.562,0,0,1,.119-.013h.663a.319.319,0,0,1,.138.027.241.241,0,0,1,.09.072.464.464,0,0,1,.059.105c.016.04.032.083.046.13l.185.532c.082-.105.165-.213.248-.323a1.639,1.639,0,0,1,.3-.3,1.5,1.5,0,0,1,.409-.222,1.672,1.672,0,0,1,.58-.088,2.739,2.739,0,0,1,1.109.222,2.644,2.644,0,0,1,.874.611,2.826,2.826,0,0,1,.573.914,3.225,3.225,0,0,1,0,2.27,2.823,2.823,0,0,1-.573.917,2.667,2.667,0,0,1-.874.613,2.713,2.713,0,0,1-1.109.224,1.572,1.572,0,0,1-.492-.068,1.442,1.442,0,0,1-.367-.178,1.7,1.7,0,0,1-.283-.242c-.082-.088-.162-.176-.241-.264v2.048a.332.332,0,0,1-.079.224.306.306,0,0,1-.246.093h-1.006a.336.336,0,0,1-.114-.022.429.429,0,0,1-.114-.062.335.335,0,0,1-.088-.1.259.259,0,0,1-.035-.134v-6.677a.285.285,0,0,1,.033-.145A.5.5,0,0,1,528.374,149.363Zm4.1,2.743a1.546,1.546,0,0,0-.092-.534,1.374,1.374,0,0,0-.259-.442,1.225,1.225,0,0,0-.4-.3,1.189,1.189,0,0,0-.514-.11,1.351,1.351,0,0,0-.525.1,1.4,1.4,0,0,0-.435.281,1.426,1.426,0,0,0-.3.42,1.323,1.323,0,0,0-.13.514v.066a1.363,1.363,0,0,0,.11.545,1.388,1.388,0,0,0,.3.442,1.432,1.432,0,0,0,.444.3,1.348,1.348,0,0,0,.54.11,1.189,1.189,0,0,0,.514-.11,1.241,1.241,0,0,0,.4-.3,1.346,1.346,0,0,0,.259-.442A1.588,1.588,0,0,0,532.475,152.106Z" transform="translate(-528.26 -149.196)" />
                <path id="Path_95" data-name="Path 95" class="cls-18-2" d="M545.5,152.106a2.912,2.912,0,0,1,.393-1.47,2.876,2.876,0,0,1,.448-.58,2.785,2.785,0,0,1,.582-.446,2.926,2.926,0,0,1,1.466-.387,2.863,2.863,0,0,1,2.035.833,2.906,2.906,0,0,1,.615.914,2.845,2.845,0,0,1,.226,1.136,2.888,2.888,0,0,1-.1.776,2.938,2.938,0,0,1-.29.692,2.86,2.86,0,0,1-2.483,1.42,2.939,2.939,0,0,1-.775-.1,2.845,2.845,0,0,1-1.721-1.319,2.94,2.94,0,0,1-.29-.692A2.883,2.883,0,0,1,545.5,152.106Zm1.6,0a1.605,1.605,0,0,0,.09.543,1.306,1.306,0,0,0,.255.437,1.193,1.193,0,0,0,.4.292,1.252,1.252,0,0,0,.529.108,1.2,1.2,0,0,0,.516-.108,1.157,1.157,0,0,0,.391-.292,1.288,1.288,0,0,0,.246-.437,1.739,1.739,0,0,0,0-1.079,1.384,1.384,0,0,0-.246-.448,1.146,1.146,0,0,0-.906-.418,1.216,1.216,0,0,0-.529.112,1.2,1.2,0,0,0-.4.306,1.4,1.4,0,0,0-.255.448A1.6,1.6,0,0,0,547.1,152.106Z" transform="translate(-538.728 -149.196)" />
                <path id="Path_96" data-name="Path 96" class="cls-18-2" d="M563.484,153.116a1.276,1.276,0,0,0,.257.2,1.875,1.875,0,0,0,.266.132,1.529,1.529,0,0,0,.224.073.735.735,0,0,0,.132.022q.083,0,.213-.006a1.13,1.13,0,0,0,.248-.04.514.514,0,0,0,.2-.108.266.266,0,0,0,.086-.211.349.349,0,0,0-.048-.2.391.391,0,0,0-.14-.123,1.18,1.18,0,0,0-.226-.09l-.3-.092a3.6,3.6,0,0,1-.869-.339,1.949,1.949,0,0,1-.542-.442,1.437,1.437,0,0,1-.279-.525,2.181,2.181,0,0,1-.079-.593,1.5,1.5,0,0,1,.145-.664,1.468,1.468,0,0,1,.413-.512,1.959,1.959,0,0,1,.641-.329,2.983,2.983,0,0,1,1.348-.07,2.049,2.049,0,0,1,.461.145,2.287,2.287,0,0,1,.428.255,3.417,3.417,0,0,1,.415.372.275.275,0,0,1,.077.165.228.228,0,0,1-.1.165q-.171.141-.327.277t-.323.3a.242.242,0,0,1-.105.055.209.209,0,0,1-.1,0,.29.29,0,0,1-.092-.044.375.375,0,0,1-.079-.075.764.764,0,0,0-.351-.231,1.294,1.294,0,0,0-.369-.059.674.674,0,0,0-.342.075.23.23,0,0,0-.119.228.245.245,0,0,0,.086.178.606.606,0,0,0,.189.1,1.628,1.628,0,0,0,.237.064q.125.024.23.055a6.793,6.793,0,0,1,.725.277,2.2,2.2,0,0,1,.571.367,1.518,1.518,0,0,1,.375.521,1.825,1.825,0,0,1,.134.738,1.7,1.7,0,0,1-.173.778,1.671,1.671,0,0,1-.476.576,2.185,2.185,0,0,1-.718.356,3.126,3.126,0,0,1-.893.123,3.264,3.264,0,0,1-.554-.048,2.628,2.628,0,0,1-.545-.156,2.485,2.485,0,0,1-.5-.277,1.961,1.961,0,0,1-.422-.411.458.458,0,0,1-.073-.13.362.362,0,0,1-.022-.134.321.321,0,0,1,.026-.121.235.235,0,0,1,.077-.094l.567-.567a.2.2,0,0,1,.187-.062A.627.627,0,0,1,563.484,153.116Z" transform="translate(-549.002 -149.156)" />
                <path id="Path_97" data-name="Path 97" class="cls-18-2" d="M582.037,154.568a.4.4,0,0,1-.026.143.347.347,0,0,1-.2.169.6.6,0,0,1-.114.013h-.865a.381.381,0,0,1-.149-.024.234.234,0,0,1-.092-.068.408.408,0,0,1-.059-.108c-.016-.043-.033-.089-.05-.139l-.127-.33q-.119.119-.259.253a2.325,2.325,0,0,1-.31.248,1.841,1.841,0,0,1-.367.191,1.147,1.147,0,0,1-.422.077,2.872,2.872,0,0,1-.766-.1,2.82,2.82,0,0,1-1.262-.736,2.867,2.867,0,0,1-.734-1.275,2.952,2.952,0,0,1-.1-.776,2.883,2.883,0,0,1,.835-2.05,2.84,2.84,0,0,1,2.028-.833,1.48,1.48,0,0,1,.5.081,1.7,1.7,0,0,1,.415.213,2.049,2.049,0,0,1,.338.3,3.32,3.32,0,0,1,.27.339l.171-.532c.029-.073.054-.133.073-.178a.312.312,0,0,1,.062-.1.162.162,0,0,1,.081-.044.656.656,0,0,1,.136-.011h.654a.6.6,0,0,1,.114.013.22.22,0,0,1,.114.062.282.282,0,0,1,.088.11.358.358,0,0,1,.026.141Zm-4.326-2.461a1.6,1.6,0,0,0,.09.543,1.284,1.284,0,0,0,.257.437,1.217,1.217,0,0,0,.4.292,1.23,1.23,0,0,0,.52.108,1.375,1.375,0,0,0,.547-.108,1.394,1.394,0,0,0,.439-.292,1.328,1.328,0,0,0,.292-.437,1.434,1.434,0,0,0,0-1.079,1.423,1.423,0,0,0-.292-.448,1.389,1.389,0,0,0-.439-.306,1.335,1.335,0,0,0-.547-.112,1.2,1.2,0,0,0-.52.112,1.218,1.218,0,0,0-.4.306,1.378,1.378,0,0,0-.257.448A1.593,1.593,0,0,0,577.712,152.106Z" transform="translate(-557.329 -149.196)" />
                <path id="Path_98" data-name="Path 98" class="cls-18-2" d="M594.019,152.106a2.9,2.9,0,0,1,.1-.778,2.847,2.847,0,0,1,.738-1.272,2.772,2.772,0,0,1,.582-.446,2.926,2.926,0,0,1,1.467-.387,2.863,2.863,0,0,1,2.035.833,2.9,2.9,0,0,1,.615.914,2.84,2.84,0,0,1,.226,1.136,2.886,2.886,0,0,1-.1.776,2.936,2.936,0,0,1-.29.692,2.843,2.843,0,0,1-1.029,1.031,2.865,2.865,0,0,1-1.454.389,2.939,2.939,0,0,1-.775-.1,2.854,2.854,0,0,1-.692-.288,2.847,2.847,0,0,1-1.03-1.031,2.91,2.91,0,0,1-.29-.692A2.874,2.874,0,0,1,594.019,152.106Zm1.6,0a1.607,1.607,0,0,0,.09.543,1.306,1.306,0,0,0,.255.437,1.194,1.194,0,0,0,.4.292,1.253,1.253,0,0,0,.529.108,1.2,1.2,0,0,0,.516-.108,1.16,1.16,0,0,0,.391-.292,1.289,1.289,0,0,0,.246-.437,1.745,1.745,0,0,0,0-1.079,1.385,1.385,0,0,0-.246-.448,1.146,1.146,0,0,0-.907-.418,1.217,1.217,0,0,0-.529.112,1.2,1.2,0,0,0-.4.306,1.4,1.4,0,0,0-.255.448A1.6,1.6,0,0,0,595.622,152.106Z" transform="translate(-568.191 -149.196)" />
                <path id="Path_99" data-name="Path 99" class="cls-18-2" d="M619.076,149.4a.271.271,0,0,1,.121-.062.59.59,0,0,1,.12-.013h.663a.3.3,0,0,1,.136.029.287.287,0,0,1,.1.077.4.4,0,0,1,.064.11c.016.041.031.083.046.127l.136.561q.066-.136.16-.309a1.366,1.366,0,0,1,.25-.324,1.3,1.3,0,0,1,.391-.254,1.458,1.458,0,0,1,.586-.1,1.958,1.958,0,0,1,.984.239,2.039,2.039,0,0,1,.694.642,1.887,1.887,0,0,1,.228-.291,1.84,1.84,0,0,1,.347-.287,1.976,1.976,0,0,1,.463-.217,1.852,1.852,0,0,1,.577-.086,1.956,1.956,0,0,1,1.561.719,2.329,2.329,0,0,1,.417.779,3.1,3.1,0,0,1,.143.951v2.879a.383.383,0,0,1-.073.253.286.286,0,0,1-.23.086h-1.014a.391.391,0,0,1-.259-.064.332.332,0,0,1-.07-.248v-2.906a1.02,1.02,0,0,0-.059-.352.891.891,0,0,0-.165-.284.736.736,0,0,0-.257-.189.809.809,0,0,0-.336-.068.775.775,0,0,0-.316.066.845.845,0,0,0-.263.182.869.869,0,0,0-.182.281.935.935,0,0,0-.068.363v2.879a.383.383,0,0,1-.073.253.286.286,0,0,1-.23.086H622.65a.391.391,0,0,1-.259-.064.332.332,0,0,1-.07-.248v-2.906a1.091,1.091,0,0,0-.055-.352.854.854,0,0,0-.158-.284.727.727,0,0,0-.25-.189.778.778,0,0,0-.331-.068.788.788,0,0,0-.31.064.887.887,0,0,0-.272.18,1.011,1.011,0,0,0-.2.279.941.941,0,0,0-.095.361v2.9a.419.419,0,0,1-.028.149.239.239,0,0,1-.086.114.392.392,0,0,1-.108.048.457.457,0,0,1-.116.013h-.992a.309.309,0,0,1-.356-.339v-4.915a.322.322,0,0,1,.037-.153.277.277,0,0,1,.1-.11Z" transform="translate(-583.336 -149.203)" />
                <path id="Path_100" data-name="Path 100" class="cls-18-2" d="M647.567,154.225a2.921,2.921,0,0,1-.869.556,2.651,2.651,0,0,1-1.023.2,2.985,2.985,0,0,1-2.077-.828,2.921,2.921,0,0,1-.641-.916,2.765,2.765,0,0,1-.237-1.147,2.987,2.987,0,0,1,.362-1.428,2.9,2.9,0,0,1,.422-.582,2.665,2.665,0,0,1,.555-.455,2.739,2.739,0,0,1,.668-.295,2.694,2.694,0,0,1,.76-.105,2.593,2.593,0,0,1,.707.1,2.75,2.75,0,0,1,.643.272,2.807,2.807,0,0,1,.551.422,2.849,2.849,0,0,1,.43.538,2.6,2.6,0,0,1,.279.624,2.38,2.38,0,0,1,.1.683c0,.152,0,.277-.006.374a.424.424,0,0,1-.068.231.33.33,0,0,1-.2.119,1.988,1.988,0,0,1-.42.033h-3.161a1.089,1.089,0,0,0,.178.47,1.113,1.113,0,0,0,.31.3,1.231,1.231,0,0,0,.373.16,1.573,1.573,0,0,0,.373.048,1.669,1.669,0,0,0,.325-.033,2.322,2.322,0,0,0,.323-.088,1.823,1.823,0,0,0,.285-.127.941.941,0,0,0,.208-.152.937.937,0,0,1,.121-.086.215.215,0,0,1,.108-.028.21.21,0,0,1,.116.039.916.916,0,0,1,.134.114l.466.527a.3.3,0,0,1,.062.1.352.352,0,0,1,.013.094.243.243,0,0,1-.048.152A.548.548,0,0,1,647.567,154.225Zm-2.112-3.661a.839.839,0,0,0-.332.068,1.25,1.25,0,0,0-.3.182,1.637,1.637,0,0,0-.435.554h2.244a2.578,2.578,0,0,0-.2-.316,1.364,1.364,0,0,0-.246-.255,1.059,1.059,0,0,0-.316-.171A1.268,1.268,0,0,0,645.454,150.563Z" transform="translate(-597.762 -149.196)" />
            </g>
        </g>
        <path id="Path_101" data-name="Path 101" class="cls-18-3" d="M443.66,67.825v13.9c.062,0,.124,0,.187,0A13.763,13.763,0,0,1,457.6,95.487c0,.085,0,.168-.006.252h13.95A27.9,27.9,0,0,0,443.66,67.825Z" transform="translate(0)" />
        <path id="Path_102" data-name="Path 102" class="cls-18-3" d="M528.791,95.487a13.763,13.763,0,0,1,13.756-13.769V67.825A27.9,27.9,0,0,0,514.66,95.739H528.8C528.8,95.655,528.791,95.572,528.791,95.487Z" transform="translate(-43.113)" />
        <path id="Path_103" data-name="Path 103" class="cls-18-1" d="M585.66,81.719a13.793,13.793,0,0,1,13.756,13.768c0,.085,0,.168-.006.252h14.137A27.9,27.9,0,0,0,585.66,67.825" transform="translate(-86.226)" />
    </g>
</svg>