<svg id="_008-puzzle" data-name="008-puzzle" 
    xmlns="http://www.w3.org/2000/svg" width="21.532" height="21.532" viewBox="0 0 21.532 21.532">
    <defs>
        <style>
                                                .cls-11-1 {
                                                    fill: #ff7816;
                                                }

                                                .cls-11-2 {
                                                    fill: #ff4b00;
                                                }

                                                .cls-11-3 {
                                                    fill: #ede9e8;
                                                }

                                                .cls-11-4 {
                                                    fill: #dfd7d5;
                                                }
        </style>
    </defs>
    <path id="Path_201" data-name="Path 201" class="cls-11-1" d="M18.966,8.243a2.611,2.611,0,0,0-.631.076V3.2H13.213a2.619,2.619,0,0,0,.076-.631,2.524,2.524,0,1,0-5.046,0,2.619,2.619,0,0,0,.076.631H3.2V8.318a2.611,2.611,0,0,0-.631-.076,2.524,2.524,0,1,0,0,5.046,2.619,2.619,0,0,0,.631-.076v5.122H8.318a2.618,2.618,0,0,0-.076.631,2.524,2.524,0,1,0,5.046,0,2.618,2.618,0,0,0-.076-.631h5.122V13.213a2.619,2.619,0,0,0,.631.076,2.524,2.524,0,1,0,0-5.046Zm0,0" />
    <path id="Path_202" data-name="Path 202" class="cls-11-2" d="M266.766,10.766a2.567,2.567,0,0,1-2.565,2.523,2.619,2.619,0,0,1-.631-.076v5.122h-5.122a2.617,2.617,0,0,1,.076.631A2.567,2.567,0,0,1,256,21.532V0a2.567,2.567,0,0,1,2.523,2.565,2.618,2.618,0,0,1-.076.631h5.122V8.318a2.611,2.611,0,0,1,.631-.076A2.567,2.567,0,0,1,266.766,10.766Zm0,0" transform="translate(-245.234)" />
    <path id="Path_203" data-name="Path 203" class="cls-11-3" d="M169.785,256A3.8,3.8,0,0,0,166,259.785v1.262h7.57v-1.262A3.8,3.8,0,0,0,169.785,256Zm0,0" transform="translate(-159.019 -245.234)" />
    <path id="Path_204" data-name="Path 204" class="cls-11-4" d="M259.785,259.785v1.262H256V256A3.8,3.8,0,0,1,259.785,259.785Zm0,0" transform="translate(-245.234 -245.234)" />
    <path id="Path_205" data-name="Path 205" class="cls-11-3" d="M198.523,136a2.523,2.523,0,1,0,2.523,2.523A2.531,2.531,0,0,0,198.523,136Zm0,0" transform="translate(-187.757 -130.281)" />
    <path id="Path_206" data-name="Path 206" class="cls-11-4" d="M256,141.046V136a2.523,2.523,0,1,1,0,5.046Zm0,0" transform="translate(-245.234 -130.281)" />
</svg>