<svg xmlns="http://www.w3.org/2000/svg" id="_002-instagram" width="20" height="20" data-name="002-instagram" viewBox="0 0 20 20">
    <defs>
        <style>
            .cls-2 {
                fill: #e7e7e7;
            }
        </style>
    </defs>
    <path id="Path_237" d="M14.042 0H5.958A5.965 5.965 0 0 0 0 5.958v8.084A5.965 5.965 0 0 0 5.958 20h8.084A5.965 5.965 0 0 0 20 14.042V5.958A5.965 5.965 0 0 0 14.042 0zm3.946 14.042a3.946 3.946 0 0 1-3.946 3.946H5.958a3.946 3.946 0 0 1-3.946-3.946V5.958a3.946 3.946 0 0 1 3.946-3.946h8.084a3.946 3.946 0 0 1 3.946 3.946v8.084z" class="cls-2" data-name="Path 237" />
    <path id="Path_238" d="M137.413 133a4.413 4.413 0 1 0 4.413 4.413 4.418 4.418 0 0 0-4.413-4.413zm0 7.109a2.7 2.7 0 1 1 2.7-2.7 2.7 2.7 0 0 1-2.7 2.7z" class="cls-2" data-name="Path 238" transform="translate(-127.413 -127.413)" />
    <ellipse id="Ellipse_1" cx="1.435" cy="1.435" class="cls-2" data-name="Ellipse 1" rx="1.435" ry="1.435" transform="translate(13.633 3.546)" />
</svg>