<svg xmlns="http://www.w3.org/2000/svg" width="20" height="20" viewBox="0 0 20 20">
    <defs>
        <style>
                .cls-3 {
                  fill: rgb(170, 170, 170);
                }
        </style>
    </defs>
    <path id="_003-linkedin" d="M18.191 0H1.809A1.809 1.809 0 0 0 0 1.809v16.382A1.809 1.809 0 0 0 1.809 20h16.382A1.809 1.809 0 0 0 20 18.191V1.809A1.809 1.809 0 0 0 18.191 0zm-12 17.269a.526.526 0 0 1-.526.526H3.421a.526.526 0 0 1-.526-.526V7.875a.526.526 0 0 1 .526-.526h2.241a.526.526 0 0 1 .526.526zM4.542 6.462a2.129 2.129 0 1 1 2.129-2.129 2.129 2.129 0 0 1-2.129 2.129zM17.9 17.312a.484.484 0 0 1-.484.484h-2.4a.484.484 0 0 1-.484-.484v-4.407c0-.657.193-2.881-1.718-2.881-1.482 0-1.783 1.522-1.843 2.2v5.083a.484.484 0 0 1-.484.484h-2.33a.484.484 0 0 1-.484-.484V7.832a.484.484 0 0 1 .484-.484h2.326a.484.484 0 0 1 .484.484v.82a3.3 3.3 0 0 1 3.105-1.462c3.851 0 3.829 3.6 3.829 5.574v4.547z" class="cls-3" data-name="003-linkedin" />
</svg>