<?xml version="1.0" encoding="utf-8"?>
<!-- Generator: Adobe Illustrator 21.1.0, SVG Export Plug-In . SVG Version: 6.00 Build 0)  -->
<svg version="1.1" id="Layer_1" 
	xmlns="http://www.w3.org/2000/svg" 
	xmlns:xlink="http://www.w3.org/1999/xlink" x="0px" y="0px" viewBox="0 0 265.2 124.8" style="enable-background:new 0 0 265.2 124.8;" xml:space="preserve">
	<style type="text/css">
	.st0{fill:#FFFFFF;}
	</style>
	<g>
		<path class="st0" d="M220.3,88.4L220.3,88.4h44.8l0,0c0-11.4-2.2-22.4-6.1-32.4c-0.3-0.7-0.5-1.3-0.8-2c-1.7-4-3.6-7.8-5.9-11.4
		c-3.3-5.5-7.2-10.5-11.6-15.1c-1-1-2-2-3-3c-1-1-2.1-1.9-3.1-2.9c-2.7-2.3-5.5-4.5-8.4-6.5c-0.6-0.4-1.2-0.8-1.8-1.2
		c-4.2-2.7-8.6-5-13.2-7c-0.7-0.3-1.3-0.6-2-0.8c-6-2.4-12.4-4.1-18.9-5.1c-4.4-0.7-8.9-1-13.5-1l0,0l0,0l0,0
		c-22.1,0-42.3,8.1-57.8,21.6c-6.9,6-12.9,13.1-17.7,21C99,46.2,97,50,95.3,54c-0.3,0.7-0.6,1.3-0.8,2c-4,10-6.1,21-6.1,32.4l0,0
		h44.8l0,0c0-0.3,0-0.5,0-0.8c0-13.5,6.2-25.6,15.9-33.6c1.6-1.3,3.3-2.6,5.1-3.6c6.6-4,14.3-6.3,22.6-6.3v0c4.5,0,8.9,0.7,12.9,2
		c0.7,0.2,1.4,0.4,2,0.7c16.7,6.1,28.6,22.1,28.6,40.9C220.4,87.9,220.4,88.1,220.3,88.4z"/>
		<rect x="209.4" y="114.6" class="st0" width="4.2" height="4.6"/>
		<path class="st0" d="M69,103.5c-0.6-0.7-1.3-1.3-2.1-1.7c-0.8-0.4-1.8-0.6-2.8-0.6c-0.7,0-1.3,0.1-1.8,0.3c-0.6,0.2-1,0.4-1.5,0.7
		c-0.4,0.3-0.8,0.6-1.1,0.9c-0.3,0.3-0.5,0.6-0.7,0.9c-0.6-0.9-1.3-1.5-2.2-2c-0.9-0.5-1.9-0.8-3.1-0.8c-0.7,0-1.4,0.1-1.9,0.3
		c-0.5,0.2-0.9,0.5-1.2,0.8c-0.3,0.3-0.6,0.7-0.8,1c-0.2,0.4-0.4,0.7-0.5,1l-0.4-1.8c0-0.1-0.1-0.3-0.1-0.4
		c-0.1-0.1-0.1-0.2-0.2-0.3s-0.2-0.2-0.3-0.2c-0.1-0.1-0.3-0.1-0.4-0.1h-2.1c-0.1,0-0.2,0-0.4,0c-0.1,0-0.3,0.1-0.4,0.2l0.1,0
		c-0.1,0.1-0.2,0.2-0.3,0.3c-0.1,0.1-0.1,0.3-0.1,0.5v15.6c0,0.3,0.1,0.6,0.3,0.8c0.2,0.2,0.5,0.3,0.9,0.3h3.1c0.1,0,0.3,0,0.4,0
		c0.1,0,0.2-0.1,0.3-0.2c0.1-0.1,0.2-0.2,0.3-0.4c0.1-0.2,0.1-0.3,0.1-0.5V109c0-0.4,0.1-0.8,0.3-1.1c0.2-0.3,0.4-0.6,0.6-0.9
		c0.3-0.2,0.5-0.4,0.9-0.6c0.3-0.1,0.6-0.2,1-0.2c0.4,0,0.7,0.1,1.1,0.2c0.3,0.1,0.6,0.3,0.8,0.6c0.2,0.3,0.4,0.6,0.5,0.9
		s0.2,0.7,0.2,1.1v9.2c0,0.4,0.1,0.7,0.2,0.8c0.1,0.1,0.4,0.2,0.8,0.2h2.8h0.1h0.3c0.3,0,0.6-0.1,0.7-0.3c0.2-0.2,0.2-0.4,0.2-0.8
		V109c0-0.4,0.1-0.8,0.2-1.1c0.1-0.3,0.3-0.6,0.6-0.9c0.2-0.2,0.5-0.4,0.8-0.6c0.3-0.1,0.6-0.2,1-0.2c0.4,0,0.7,0.1,1.1,0.2
		c0.3,0.1,0.6,0.3,0.8,0.6c0.2,0.3,0.4,0.6,0.5,0.9c0.1,0.3,0.2,0.7,0.2,1.1v9.2c0,0.4,0.1,0.7,0.2,0.8c0.1,0.1,0.4,0.2,0.8,0.2h3.2
		c0.3,0,0.6-0.1,0.7-0.3c0.2-0.2,0.2-0.4,0.2-0.8V109c0-1.1-0.2-2.1-0.5-3C70,105,69.5,104.2,69,103.5z"/>
		<path class="st0" d="M89.6,103.9c-0.8-0.8-1.8-1.5-2.9-1.9c-1.1-0.5-2.3-0.7-3.6-0.7c-0.9,0-1.7,0.1-2.5,0.3
		c-0.8,0.2-1.5,0.5-2.2,0.9c-0.7,0.4-1.3,0.9-1.8,1.4c-0.6,0.6-1,1.2-1.4,1.8c-0.4,0.7-0.7,1.4-0.9,2.2c-0.2,0.8-0.3,1.6-0.3,2.5
		c0,0.9,0.1,1.7,0.3,2.5c0.2,0.8,0.5,1.5,0.9,2.2c0.4,0.7,0.9,1.3,1.4,1.8c0.6,0.6,1.2,1,1.8,1.4c0.7,0.4,1.4,0.7,2.2,0.9
		c0.8,0.2,1.6,0.3,2.5,0.3c0.8,0,1.7-0.1,2.4-0.3c0.8-0.2,1.5-0.5,2.2-0.9c0.7-0.4,1.3-0.9,1.8-1.4c0.6-0.6,1-1.2,1.4-1.8
		c0.4-0.7,0.7-1.4,0.9-2.2c0.2-0.8,0.3-1.6,0.3-2.5c0-1.3-0.2-2.5-0.7-3.6C91.1,105.7,90.5,104.7,89.6,103.9z M86.8,112.1
		c-0.2,0.5-0.4,1-0.8,1.4c-0.3,0.4-0.8,0.7-1.2,0.9c-0.5,0.2-1,0.3-1.6,0.3c-0.6,0-1.2-0.1-1.7-0.3c-0.5-0.2-0.9-0.5-1.3-0.9
		c-0.3-0.4-0.6-0.9-0.8-1.4c-0.2-0.5-0.3-1.1-0.3-1.7c0-0.6,0.1-1.2,0.3-1.7c0.2-0.5,0.5-1,0.8-1.4s0.8-0.7,1.3-1
		c0.5-0.2,1.1-0.4,1.7-0.4c0.6,0,1.1,0.1,1.6,0.4c0.5,0.2,0.9,0.6,1.2,1s0.6,0.9,0.8,1.4c0.2,0.5,0.3,1.1,0.3,1.7
		C87.1,111,87,111.5,86.8,112.1z"/>
		<path class="st0" d="M100.2,101.5H97c-0.3,0-0.5,0.1-0.8,0.3c-0.2,0.2-0.3,0.5-0.3,0.8v16c0,0.2,0,0.4-0.1,0.6
		c-0.1,0.2-0.1,0.5-0.3,0.7c-0.1,0.2-0.2,0.4-0.4,0.6c-0.2,0.2-0.3,0.2-0.5,0.2h-0.3c-0.3,0-0.5,0.1-0.8,0.3
		c-0.2,0.2-0.3,0.5-0.3,0.8v2c0,0.3,0.1,0.5,0.3,0.7c0.2,0.2,0.4,0.3,0.8,0.3h0.3c0.9,0,1.7-0.2,2.5-0.5c0.8-0.3,1.5-0.8,2.1-1.3
		c0.6-0.6,1.1-1.2,1.5-2c0.4-0.8,0.5-1.6,0.5-2.4v-16c0-0.3-0.1-0.6-0.3-0.8C100.8,101.6,100.5,101.5,100.2,101.5z"/>
		<path class="st0" d="M121.3,103.9c-0.8-0.8-1.7-1.5-2.8-1.9c-1.1-0.5-2.2-0.7-3.5-0.7c-0.7,0-1.3,0.1-1.8,0.3
		c-0.5,0.2-0.9,0.4-1.3,0.7c-0.4,0.3-0.7,0.6-0.9,0.9c-0.3,0.3-0.5,0.7-0.8,1l-0.6-1.7c0-0.1-0.1-0.3-0.1-0.4
		c-0.1-0.1-0.1-0.2-0.2-0.3c-0.1-0.1-0.2-0.2-0.3-0.2c-0.1-0.1-0.3-0.1-0.4-0.1h-2.1c-0.1,0-0.2,0-0.4,0c-0.1,0-0.3,0.1-0.4,0.2
		c-0.1,0.1-0.2,0.2-0.3,0.3c-0.1,0.1-0.1,0.3-0.1,0.5v21.1c0,0.2,0,0.3,0.1,0.4c0.1,0.1,0.2,0.2,0.3,0.3c0.1,0.1,0.2,0.1,0.4,0.2
		s0.3,0.1,0.4,0.1h3.2c0.4,0,0.6-0.1,0.8-0.3c0.2-0.2,0.3-0.4,0.3-0.7v-6.5c0.3,0.3,0.5,0.6,0.8,0.8c0.3,0.3,0.6,0.5,0.9,0.8
		c0.3,0.2,0.7,0.4,1.2,0.6c0.4,0.1,1,0.2,1.6,0.2c1.3,0,2.4-0.2,3.5-0.7c1.1-0.5,2-1.1,2.8-1.9c0.8-0.8,1.4-1.8,1.8-2.9
		c0.4-1.1,0.7-2.3,0.7-3.6c0-1.3-0.2-2.5-0.7-3.6C122.7,105.7,122.1,104.7,121.3,103.9z M118.4,112.1c-0.2,0.5-0.5,1-0.8,1.4
		c-0.4,0.4-0.8,0.7-1.3,0.9c-0.5,0.2-1,0.3-1.6,0.3c-0.6,0-1.2-0.1-1.7-0.3c-0.5-0.2-1-0.5-1.4-0.9c-0.4-0.4-0.7-0.9-0.9-1.4
		c-0.2-0.5-0.3-1.1-0.3-1.7v-0.2c0-0.6,0.2-1.1,0.4-1.6c0.2-0.5,0.6-1,1-1.3c0.4-0.4,0.9-0.7,1.4-0.9c0.5-0.2,1.1-0.3,1.7-0.3
		c0.6,0,1.1,0.1,1.6,0.3c0.5,0.2,0.9,0.5,1.3,0.9c0.4,0.4,0.6,0.9,0.8,1.4c0.2,0.5,0.3,1.1,0.3,1.7
		C118.7,111,118.6,111.5,118.4,112.1z"/>
		<path class="st0" d="M142.4,103.9c-0.8-0.8-1.8-1.5-2.9-1.9c-1.1-0.5-2.3-0.7-3.6-0.7c-0.9,0-1.7,0.1-2.5,0.3
		c-0.8,0.2-1.5,0.5-2.2,0.9c-0.7,0.4-1.3,0.9-1.8,1.4c-0.6,0.6-1,1.2-1.4,1.8c-0.4,0.7-0.7,1.4-0.9,2.2c-0.2,0.8-0.3,1.6-0.3,2.5
		c0,0.9,0.1,1.7,0.3,2.5c0.2,0.8,0.5,1.5,0.9,2.2c0.4,0.7,0.9,1.3,1.4,1.8c0.6,0.6,1.2,1,1.8,1.4c0.7,0.4,1.4,0.7,2.2,0.9
		c0.8,0.2,1.6,0.3,2.5,0.3c0.8,0,1.7-0.1,2.4-0.3c0.8-0.2,1.5-0.5,2.2-0.9c0.7-0.4,1.3-0.9,1.8-1.4c0.6-0.6,1-1.2,1.4-1.8
		c0.4-0.7,0.7-1.4,0.9-2.2c0.2-0.8,0.3-1.6,0.3-2.5c0-1.3-0.2-2.5-0.7-3.6C143.9,105.7,143.2,104.7,142.4,103.9z M139.5,112.1
		c-0.2,0.5-0.4,1-0.8,1.4c-0.3,0.4-0.8,0.7-1.2,0.9c-0.5,0.2-1,0.3-1.6,0.3c-0.6,0-1.2-0.1-1.7-0.3c-0.5-0.2-0.9-0.5-1.3-0.9
		c-0.3-0.4-0.6-0.9-0.8-1.4c-0.2-0.5-0.3-1.1-0.3-1.7c0-0.6,0.1-1.2,0.3-1.7c0.2-0.5,0.5-1,0.8-1.4c0.3-0.4,0.8-0.7,1.3-1
		c0.5-0.2,1.1-0.4,1.7-0.4c0.6,0,1.1,0.1,1.6,0.4c0.5,0.2,0.9,0.6,1.2,1s0.6,0.9,0.8,1.4c0.2,0.5,0.3,1.1,0.3,1.7
		C139.8,111,139.7,111.5,139.5,112.1z"/>
		<path class="st0" d="M160.1,109.8c-0.5-0.5-1.1-0.8-1.8-1.2c-0.7-0.3-1.5-0.6-2.3-0.9c-0.2-0.1-0.5-0.1-0.7-0.2
		c-0.3-0.1-0.5-0.1-0.8-0.2c-0.2-0.1-0.4-0.2-0.6-0.3c-0.2-0.1-0.3-0.3-0.3-0.6c0-0.3,0.1-0.6,0.4-0.7c0.3-0.2,0.6-0.2,1.1-0.2
		c0.4,0,0.8,0.1,1.2,0.2c0.4,0.1,0.8,0.4,1.1,0.7c0.1,0.1,0.2,0.2,0.3,0.2c0.1,0.1,0.2,0.1,0.3,0.1c0.1,0,0.2,0,0.3,0
		c0.1,0,0.2-0.1,0.3-0.2c0.4-0.4,0.7-0.7,1-1c0.3-0.3,0.7-0.6,1-0.9c0.2-0.2,0.3-0.4,0.3-0.5c0-0.2-0.1-0.3-0.2-0.5
		c-0.4-0.5-0.9-0.8-1.3-1.2c-0.4-0.3-0.9-0.6-1.4-0.8c-0.5-0.2-1-0.4-1.5-0.5c-0.5-0.1-1.1-0.1-1.6-0.1c-1,0-1.8,0.1-2.6,0.4
		c-0.8,0.2-1.5,0.6-2,1c-0.6,0.5-1,1-1.3,1.6c-0.3,0.6-0.5,1.3-0.5,2.1c0,0.7,0.1,1.3,0.3,1.9c0.2,0.6,0.5,1.1,0.9,1.7
		c0.4,0.5,1,1,1.7,1.4s1.6,0.8,2.8,1.1c0.4,0.1,0.7,0.2,1,0.3c0.3,0.1,0.5,0.2,0.7,0.3c0.2,0.1,0.3,0.2,0.4,0.4
		c0.1,0.2,0.2,0.4,0.2,0.6c0,0.3-0.1,0.5-0.3,0.7c-0.2,0.2-0.4,0.3-0.6,0.3c-0.3,0.1-0.5,0.1-0.8,0.1c-0.3,0-0.5,0-0.7,0
		c-0.1,0-0.2,0-0.4-0.1c-0.2,0-0.4-0.1-0.7-0.2c-0.3-0.1-0.5-0.2-0.8-0.4c-0.3-0.2-0.6-0.4-0.8-0.6c-0.3-0.3-0.5-0.4-0.7-0.5
		c-0.2-0.1-0.4,0-0.6,0.2l-1.8,1.8c-0.1,0.1-0.2,0.2-0.2,0.3c-0.1,0.1-0.1,0.2-0.1,0.4c0,0.1,0,0.3,0.1,0.4c0.1,0.1,0.1,0.3,0.2,0.4
		c0.4,0.5,0.8,0.9,1.3,1.3c0.5,0.4,1,0.6,1.6,0.9c0.6,0.2,1.1,0.4,1.7,0.5c0.6,0.1,1.2,0.2,1.8,0.2c1,0,2-0.1,2.8-0.4
		s1.6-0.6,2.3-1.1c0.6-0.5,1.1-1.1,1.5-1.8c0.4-0.7,0.5-1.5,0.5-2.5c0-0.9-0.1-1.7-0.4-2.3C161,110.8,160.6,110.2,160.1,109.8z"/>
		<path class="st0" d="M183.3,101.7c-0.1-0.1-0.2-0.2-0.4-0.2c-0.1,0-0.3,0-0.4,0h-2.1c-0.2,0-0.3,0-0.4,0c-0.1,0-0.2,0.1-0.3,0.1
		c-0.1,0.1-0.1,0.2-0.2,0.3c-0.1,0.1-0.1,0.3-0.2,0.6l-0.5,1.7c-0.3-0.4-0.5-0.7-0.9-1.1c-0.3-0.4-0.7-0.7-1.1-0.9
		c-0.4-0.3-0.8-0.5-1.3-0.7c-0.5-0.2-1-0.3-1.6-0.3c-1.3,0-2.4,0.2-3.5,0.7c-1.1,0.5-2.1,1.1-2.9,1.9c-0.8,0.8-1.5,1.8-1.9,2.9
		c-0.5,1.1-0.7,2.3-0.7,3.6c0,0.9,0.1,1.7,0.3,2.5c0.2,0.8,0.5,1.5,0.9,2.2c0.4,0.7,0.9,1.3,1.4,1.8c0.5,0.6,1.2,1,1.8,1.4
		c0.7,0.4,1.4,0.7,2.2,0.9c0.8,0.2,1.6,0.3,2.4,0.3c0.5,0,0.9-0.1,1.3-0.2c0.4-0.2,0.8-0.4,1.2-0.6c0.4-0.2,0.7-0.5,1-0.8
		c0.3-0.3,0.6-0.5,0.8-0.8l0.4,1c0.1,0.2,0.1,0.3,0.2,0.4c0.1,0.1,0.1,0.2,0.2,0.3c0.1,0.1,0.2,0.2,0.3,0.2c0.1,0.1,0.3,0.1,0.5,0.1
		h2.7c0.1,0,0.2,0,0.4,0c0.1,0,0.3-0.1,0.4-0.2c0.1-0.1,0.2-0.2,0.3-0.3c0.1-0.1,0.1-0.3,0.1-0.5v-15.7c0-0.2,0-0.3-0.1-0.4
		C183.5,101.9,183.4,101.8,183.3,101.7z M178,112.1c-0.2,0.5-0.5,1-0.9,1.4c-0.4,0.4-0.9,0.7-1.4,0.9c-0.5,0.2-1.1,0.3-1.7,0.3
		c-0.6,0-1.2-0.1-1.6-0.3c-0.5-0.2-0.9-0.5-1.3-0.9c-0.4-0.4-0.6-0.9-0.8-1.4c-0.2-0.5-0.3-1.1-0.3-1.7c0-0.6,0.1-1.2,0.3-1.7
		c0.2-0.5,0.5-1,0.8-1.4c0.4-0.4,0.8-0.7,1.3-1c0.5-0.2,1-0.4,1.6-0.4c0.6,0,1.2,0.1,1.7,0.4c0.5,0.2,1,0.6,1.4,1
		c0.4,0.4,0.7,0.9,0.9,1.4c0.2,0.5,0.3,1.1,0.3,1.7C178.3,111,178.2,111.5,178,112.1z"/>
		<path class="st0" d="M202.8,103.9c-0.8-0.8-1.8-1.5-2.9-1.9c-1.1-0.5-2.3-0.7-3.6-0.7c-0.9,0-1.7,0.1-2.5,0.3
		c-0.8,0.2-1.5,0.5-2.2,0.9c-0.7,0.4-1.3,0.9-1.8,1.4c-0.6,0.6-1,1.2-1.4,1.8c-0.4,0.7-0.7,1.4-0.9,2.2c-0.2,0.8-0.3,1.6-0.3,2.5
		c0,0.9,0.1,1.7,0.3,2.5c0.2,0.8,0.5,1.5,0.9,2.2c0.4,0.7,0.9,1.3,1.4,1.8c0.6,0.6,1.2,1,1.8,1.4c0.7,0.4,1.4,0.7,2.2,0.9
		c0.8,0.2,1.6,0.3,2.5,0.3c0.8,0,1.7-0.1,2.4-0.3c0.8-0.2,1.5-0.5,2.2-0.9c0.7-0.4,1.3-0.9,1.8-1.4c0.6-0.6,1-1.2,1.4-1.8
		c0.4-0.7,0.7-1.4,0.9-2.2c0.2-0.8,0.3-1.6,0.3-2.5c0-1.3-0.2-2.5-0.7-3.6C204.3,105.7,203.6,104.7,202.8,103.9z M199.9,112.1
		c-0.2,0.5-0.4,1-0.8,1.4c-0.3,0.4-0.8,0.7-1.2,0.9c-0.5,0.2-1,0.3-1.6,0.3c-0.6,0-1.2-0.1-1.7-0.3c-0.5-0.2-0.9-0.5-1.3-0.9
		c-0.3-0.4-0.6-0.9-0.8-1.4c-0.2-0.5-0.3-1.1-0.3-1.7c0-0.6,0.1-1.2,0.3-1.7c0.2-0.5,0.5-1,0.8-1.4c0.3-0.4,0.8-0.7,1.3-1
		c0.5-0.2,1.1-0.4,1.7-0.4c0.6,0,1.1,0.1,1.6,0.4c0.5,0.2,0.9,0.6,1.2,1s0.6,0.9,0.8,1.4c0.2,0.5,0.3,1.1,0.3,1.7
		C200.2,111,200.1,111.5,199.9,112.1z"/>
		<path class="st0" d="M242.8,103.5c-0.6-0.7-1.3-1.3-2.1-1.7c-0.8-0.4-1.8-0.6-2.8-0.6c-0.7,0-1.3,0.1-1.8,0.3
		c-0.6,0.2-1,0.4-1.5,0.7c-0.4,0.3-0.8,0.6-1.1,0.9c-0.3,0.3-0.5,0.6-0.7,0.9c-0.6-0.9-1.3-1.5-2.2-2c-0.9-0.5-1.9-0.8-3.1-0.8
		c-0.7,0-1.4,0.1-1.9,0.3c-0.5,0.2-0.9,0.5-1.2,0.8c-0.3,0.3-0.6,0.7-0.8,1c-0.2,0.4-0.4,0.7-0.5,1l-0.4-1.8c0-0.1-0.1-0.3-0.1-0.4
		c-0.1-0.1-0.1-0.2-0.2-0.3s-0.2-0.2-0.3-0.2c-0.1-0.1-0.3-0.1-0.4-0.1h-2.1c-0.1,0-0.2,0-0.4,0c-0.1,0-0.3,0.1-0.4,0.2l0.1,0
		c-0.1,0.1-0.2,0.2-0.3,0.3s-0.1,0.3-0.1,0.5v15.6c0,0.3,0.1,0.6,0.3,0.8c0.2,0.2,0.5,0.3,0.9,0.3h3.1c0.1,0,0.3,0,0.4,0
		c0.1,0,0.2-0.1,0.3-0.2c0.1-0.1,0.2-0.2,0.3-0.4c0.1-0.2,0.1-0.3,0.1-0.5V109c0-0.4,0.1-0.8,0.3-1.1c0.2-0.3,0.4-0.6,0.6-0.9
		c0.3-0.2,0.5-0.4,0.9-0.6c0.3-0.1,0.6-0.2,1-0.2c0.4,0,0.7,0.1,1.1,0.2c0.3,0.1,0.6,0.3,0.8,0.6c0.2,0.3,0.4,0.6,0.5,0.9
		s0.2,0.7,0.2,1.1v9.2c0,0.4,0.1,0.7,0.2,0.8c0.1,0.1,0.4,0.2,0.8,0.2h2.8h0.1h0.3c0.3,0,0.6-0.1,0.7-0.3c0.2-0.2,0.2-0.4,0.2-0.8
		V109c0-0.4,0.1-0.8,0.2-1.1c0.1-0.3,0.3-0.6,0.6-0.9c0.2-0.2,0.5-0.4,0.8-0.6c0.3-0.1,0.6-0.2,1-0.2c0.4,0,0.7,0.1,1.1,0.2
		c0.3,0.1,0.6,0.3,0.8,0.6c0.2,0.3,0.4,0.6,0.5,0.9c0.1,0.3,0.2,0.7,0.2,1.1v9.2c0,0.4,0.1,0.7,0.2,0.8c0.1,0.1,0.4,0.2,0.8,0.2h3.2
		c0.3,0,0.6-0.1,0.7-0.3c0.2-0.2,0.2-0.4,0.2-0.8V109c0-1.1-0.2-2.1-0.5-3C243.8,105,243.3,104.2,242.8,103.5z"/>
		<path class="st0" d="M264,105.4c-0.4-0.6-0.8-1.2-1.4-1.7c-0.5-0.5-1.1-1-1.7-1.3c-0.6-0.4-1.3-0.7-2-0.9c-0.7-0.2-1.5-0.3-2.2-0.3
		c-0.8,0-1.6,0.1-2.4,0.3c-0.8,0.2-1.5,0.5-2.1,0.9c-0.6,0.4-1.2,0.9-1.8,1.4c-0.5,0.6-1,1.2-1.3,1.8c-0.4,0.7-0.6,1.4-0.8,2.2
		c-0.2,0.8-0.3,1.6-0.3,2.4c0,1.3,0.3,2.5,0.8,3.6c0.5,1.1,1.2,2.1,2,2.9c0.9,0.8,1.8,1.5,3,1.9c1.1,0.5,2.3,0.7,3.6,0.7
		c1.1,0,2.2-0.2,3.2-0.6c1-0.4,1.9-1,2.8-1.8c0.1-0.1,0.3-0.2,0.4-0.4c0.1-0.1,0.2-0.3,0.2-0.5c0-0.1,0-0.2,0-0.3
		c0-0.1-0.1-0.2-0.2-0.3l-1.5-1.7c-0.2-0.2-0.3-0.3-0.4-0.4c-0.1-0.1-0.2-0.1-0.4-0.1c-0.1,0-0.2,0-0.3,0.1
		c-0.1,0.1-0.2,0.2-0.4,0.3c-0.2,0.2-0.4,0.3-0.7,0.5c-0.3,0.2-0.6,0.3-0.9,0.4c-0.3,0.1-0.7,0.2-1,0.3s-0.7,0.1-1,0.1
		c-0.4,0-0.8-0.1-1.2-0.2c-0.4-0.1-0.8-0.3-1.2-0.5c-0.4-0.2-0.7-0.6-1-1c-0.3-0.4-0.5-0.9-0.6-1.5h10c0.6,0,1,0,1.3-0.1
		c0.3-0.1,0.5-0.2,0.6-0.4c0.1-0.2,0.2-0.4,0.2-0.7s0-0.7,0-1.2c0-0.7-0.1-1.5-0.3-2.2C264.6,106.7,264.3,106.1,264,105.4z
		 M253.1,108c0.1-0.3,0.3-0.6,0.6-0.9c0.2-0.3,0.5-0.6,0.8-0.8c0.3-0.2,0.6-0.4,1-0.6c0.3-0.1,0.7-0.2,1.1-0.2
		c0.5,0,0.9,0.1,1.3,0.2c0.4,0.1,0.7,0.3,1,0.5c0.3,0.2,0.6,0.5,0.8,0.8c0.2,0.3,0.4,0.6,0.6,1H253.1z"/>
		<path class="st0" d="M0,0v44c0.2,0,0.4,0,0.6,0c24.1,0,43.6,19.5,43.6,43.6c0,0.3,0,0.5,0,0.8h44.2C88.4,39.6,48.8,0,0,0z"/>
	</g>
</svg>
