<?xml version="1.0" encoding="utf-8"?>
<!-- Generator: Adobe Illustrator 21.1.0, SVG Export Plug-In . SVG Version: 6.00 Build 0)  -->
<svg version="1.1" id="Layer_1" 
	xmlns="http://www.w3.org/2000/svg" 
	xmlns:xlink="http://www.w3.org/1999/xlink" x="0px" y="0px" viewBox="0 0 265.2 124.8" style="enable-background:new 0 0 265.2 124.8;" xml:space="preserve">
	<style type="text/css">
	.st0{fill:#C83E27;}
	.st1{fill:#77787B;}
	.st2{fill:#F15A29;}
	</style>
	<path class="st0" d="M265.2,88.4c0-48.8-39.6-88.4-88.4-88.4l0,0l0,0l0,0l0,0C128,0,88.4,39.6,88.4,88.4h44.8c0-0.3,0-0.5,0-0.8
	c0-24.1,19.5-43.6,43.6-43.6v0c24,0.1,43.6,19.6,43.6,43.6c0,0.3,0,0.5,0,0.8H265.2z"/>
	<g>
		<rect x="209.4" y="114.6" class="st1" width="4.2" height="4.6"/>
		<path class="st1" d="M44.8,101.8c0.1-0.1,0.2-0.2,0.4-0.2c0.1,0,0.3,0,0.4,0h2.1c0.2,0,0.3,0,0.4,0.1c0.1,0.1,0.2,0.1,0.3,0.2
		c0.1,0.1,0.2,0.2,0.2,0.3c0.1,0.1,0.1,0.3,0.1,0.4l0.4,1.8c0.1-0.3,0.3-0.6,0.5-1c0.2-0.4,0.5-0.7,0.8-1c0.3-0.3,0.7-0.6,1.2-0.8
		c0.5-0.2,1.1-0.3,1.9-0.3c1.2,0,2.2,0.3,3.1,0.8c0.9,0.5,1.6,1.2,2.2,2c0.2-0.3,0.4-0.6,0.7-0.9c0.3-0.3,0.7-0.6,1.1-0.9
		c0.4-0.3,0.9-0.5,1.5-0.7c0.6-0.2,1.2-0.3,1.8-0.3c1.1,0,2,0.2,2.8,0.6c0.8,0.4,1.5,1,2.1,1.7c0.6,0.7,1,1.5,1.3,2.5
		c0.3,0.9,0.5,1.9,0.5,3v9.1c0,0.4-0.1,0.6-0.2,0.8c-0.2,0.2-0.4,0.3-0.7,0.3h-3.2c-0.4,0-0.7-0.1-0.8-0.2c-0.1-0.1-0.2-0.4-0.2-0.8
		V109c0-0.4-0.1-0.8-0.2-1.1c-0.1-0.3-0.3-0.6-0.5-0.9c-0.2-0.3-0.5-0.5-0.8-0.6c-0.3-0.1-0.7-0.2-1.1-0.2c-0.4,0-0.7,0.1-1,0.2
		c-0.3,0.1-0.6,0.3-0.8,0.6c-0.2,0.2-0.4,0.5-0.6,0.9c-0.1,0.3-0.2,0.7-0.2,1.1v9.1c0,0.4-0.1,0.6-0.2,0.8c-0.2,0.2-0.4,0.3-0.7,0.3
		h-0.3h-0.1h-2.8c-0.4,0-0.7-0.1-0.8-0.2c-0.1-0.1-0.2-0.4-0.2-0.8V109c0-0.4-0.1-0.8-0.2-1.1s-0.3-0.6-0.5-0.9
		c-0.2-0.3-0.5-0.5-0.8-0.6c-0.3-0.1-0.7-0.2-1.1-0.2c-0.3,0-0.7,0.1-1,0.2c-0.3,0.1-0.6,0.3-0.9,0.6c-0.3,0.2-0.5,0.5-0.6,0.9
		c-0.2,0.3-0.3,0.7-0.3,1.1v9.2c0,0.2,0,0.3-0.1,0.5c-0.1,0.2-0.2,0.3-0.3,0.4c-0.1,0.1-0.2,0.1-0.3,0.2c-0.1,0-0.2,0-0.4,0h-3.1
		c-0.4,0-0.7-0.1-0.9-0.3c-0.2-0.2-0.3-0.5-0.3-0.8v-15.6c0-0.2,0-0.3,0.1-0.5C44.6,101.9,44.7,101.8,44.8,101.8L44.8,101.8z"/>
		<path class="st1" d="M74,110.4c0-0.9,0.1-1.7,0.3-2.5c0.2-0.8,0.5-1.5,0.9-2.2c0.4-0.7,0.9-1.3,1.4-1.8c0.6-0.6,1.2-1,1.8-1.4
		c0.7-0.4,1.4-0.7,2.2-0.9c0.8-0.2,1.6-0.3,2.5-0.3c1.3,0,2.4,0.2,3.6,0.7c1.1,0.5,2.1,1.1,2.9,1.9c0.8,0.8,1.5,1.8,1.9,2.9
		c0.5,1.1,0.7,2.3,0.7,3.6c0,0.9-0.1,1.7-0.3,2.5c-0.2,0.8-0.5,1.5-0.9,2.2c-0.4,0.7-0.9,1.3-1.4,1.8c-0.6,0.6-1.2,1-1.8,1.4
		c-0.7,0.4-1.4,0.7-2.2,0.9c-0.8,0.2-1.6,0.3-2.4,0.3c-0.9,0-1.7-0.1-2.5-0.3c-0.8-0.2-1.5-0.5-2.2-0.9c-0.7-0.4-1.3-0.9-1.8-1.4
		c-0.6-0.6-1-1.2-1.4-1.8c-0.4-0.7-0.7-1.4-0.9-2.2C74.1,112,74,111.2,74,110.4z M79.1,110.4c0,0.6,0.1,1.2,0.3,1.7
		c0.2,0.5,0.5,1,0.8,1.4c0.3,0.4,0.8,0.7,1.3,0.9c0.5,0.2,1.1,0.3,1.7,0.3c0.6,0,1.1-0.1,1.6-0.3c0.5-0.2,0.9-0.5,1.2-0.9
		c0.3-0.4,0.6-0.9,0.8-1.4c0.2-0.5,0.3-1.1,0.3-1.7c0-0.6-0.1-1.2-0.3-1.7c-0.2-0.5-0.4-1-0.8-1.4c-0.3-0.4-0.8-0.7-1.2-1
		c-0.5-0.2-1-0.4-1.6-0.4c-0.6,0-1.2,0.1-1.7,0.4c-0.5,0.2-0.9,0.6-1.3,1c-0.3,0.4-0.6,0.9-0.8,1.4
		C79.2,109.2,79.1,109.8,79.1,110.4z"/>
		<path class="st1" d="M95.9,102.6c0-0.4,0.1-0.6,0.3-0.8c0.2-0.2,0.5-0.3,0.8-0.3h3.2c0.3,0,0.6,0.1,0.8,0.3
		c0.2,0.2,0.3,0.5,0.3,0.8v16c0,0.9-0.2,1.7-0.5,2.4c-0.4,0.8-0.8,1.4-1.5,2c-0.6,0.6-1.3,1-2.1,1.3c-0.8,0.3-1.6,0.5-2.5,0.5h-0.3
		c-0.3,0-0.6-0.1-0.8-0.3c-0.2-0.2-0.3-0.4-0.3-0.7v-2c0-0.3,0.1-0.6,0.3-0.8c0.2-0.2,0.5-0.3,0.8-0.3h0.3c0.2,0,0.4-0.1,0.5-0.2
		c0.2-0.2,0.3-0.3,0.4-0.6c0.1-0.2,0.2-0.5,0.3-0.7c0.1-0.2,0.1-0.5,0.1-0.6V102.6z"/>
		<g>
			<path class="st1" d="M105.7,101.7c0.1-0.1,0.2-0.2,0.4-0.2c0.1,0,0.3,0,0.4,0h2.1c0.2,0,0.3,0,0.4,0.1c0.1,0.1,0.2,0.1,0.3,0.2
			c0.1,0.1,0.1,0.2,0.2,0.3c0.1,0.1,0.1,0.3,0.1,0.4l0.6,1.7c0.3-0.3,0.5-0.7,0.8-1c0.3-0.3,0.6-0.7,0.9-0.9
			c0.4-0.3,0.8-0.5,1.3-0.7c0.5-0.2,1.1-0.3,1.8-0.3c1.3,0,2.4,0.2,3.5,0.7c1.1,0.5,2,1.1,2.8,1.9c0.8,0.8,1.4,1.8,1.8,2.9
			c0.4,1.1,0.7,2.3,0.7,3.6c0,1.3-0.2,2.5-0.7,3.6c-0.4,1.1-1,2.1-1.8,2.9c-0.8,0.8-1.7,1.5-2.8,1.9c-1.1,0.5-2.2,0.7-3.5,0.7
			c-0.6,0-1.1-0.1-1.6-0.2c-0.4-0.1-0.8-0.3-1.2-0.6c-0.3-0.2-0.6-0.5-0.9-0.8c-0.3-0.3-0.5-0.6-0.8-0.8v6.5c0,0.3-0.1,0.5-0.3,0.7
			c-0.2,0.2-0.4,0.3-0.8,0.3h-3.2c-0.1,0-0.2,0-0.4-0.1s-0.3-0.1-0.4-0.2c-0.1-0.1-0.2-0.2-0.3-0.3c-0.1-0.1-0.1-0.3-0.1-0.4v-21.1
			c0-0.2,0-0.3,0.1-0.5C105.5,101.9,105.6,101.8,105.7,101.7z M118.7,110.4c0-0.6-0.1-1.2-0.3-1.7c-0.2-0.5-0.5-1-0.8-1.4
			c-0.4-0.4-0.8-0.7-1.3-0.9c-0.5-0.2-1-0.3-1.6-0.3c-0.6,0-1.1,0.1-1.7,0.3c-0.5,0.2-1,0.5-1.4,0.9c-0.4,0.4-0.7,0.8-1,1.3
			c-0.2,0.5-0.4,1.1-0.4,1.6v0.2c0,0.6,0.1,1.2,0.3,1.7c0.2,0.5,0.5,1,0.9,1.4c0.4,0.4,0.9,0.7,1.4,0.9c0.5,0.2,1.1,0.3,1.7,0.3
			c0.6,0,1.1-0.1,1.6-0.3c0.5-0.2,0.9-0.5,1.3-0.9c0.4-0.4,0.6-0.9,0.8-1.4C118.6,111.5,118.7,111,118.7,110.4z"/>
			<path class="st1" d="M126.8,110.4c0-0.9,0.1-1.7,0.3-2.5c0.2-0.8,0.5-1.5,0.9-2.2c0.4-0.7,0.9-1.3,1.4-1.8c0.6-0.6,1.2-1,1.8-1.4
			c0.7-0.4,1.4-0.7,2.2-0.9c0.8-0.2,1.6-0.3,2.5-0.3c1.3,0,2.4,0.2,3.6,0.7c1.1,0.5,2.1,1.1,2.9,1.9c0.8,0.8,1.5,1.8,1.9,2.9
			c0.5,1.1,0.7,2.3,0.7,3.6c0,0.9-0.1,1.7-0.3,2.5c-0.2,0.8-0.5,1.5-0.9,2.2c-0.4,0.7-0.9,1.3-1.4,1.8c-0.6,0.6-1.2,1-1.8,1.4
			c-0.7,0.4-1.4,0.7-2.2,0.9c-0.8,0.2-1.6,0.3-2.4,0.3c-0.9,0-1.7-0.1-2.5-0.3c-0.8-0.2-1.5-0.5-2.2-0.9c-0.7-0.4-1.3-0.9-1.8-1.4
			c-0.6-0.6-1-1.2-1.4-1.8c-0.4-0.7-0.7-1.4-0.9-2.2C126.9,112,126.8,111.2,126.8,110.4z M131.9,110.4c0,0.6,0.1,1.2,0.3,1.7
			c0.2,0.5,0.5,1,0.8,1.4c0.3,0.4,0.8,0.7,1.3,0.9c0.5,0.2,1.1,0.3,1.7,0.3c0.6,0,1.1-0.1,1.6-0.3c0.5-0.2,0.9-0.5,1.2-0.9
			s0.6-0.9,0.8-1.4c0.2-0.5,0.3-1.1,0.3-1.7c0-0.6-0.1-1.2-0.3-1.7c-0.2-0.5-0.4-1-0.8-1.4s-0.8-0.7-1.2-1s-1-0.4-1.6-0.4
			c-0.6,0-1.2,0.1-1.7,0.4c-0.5,0.2-0.9,0.6-1.3,1c-0.3,0.4-0.6,0.9-0.8,1.4C131.9,109.2,131.9,109.8,131.9,110.4z"/>
			<path class="st1" d="M151.2,113.7c0.3,0.3,0.5,0.5,0.8,0.6c0.3,0.2,0.6,0.3,0.8,0.4c0.3,0.1,0.5,0.2,0.7,0.2
			c0.2,0,0.3,0.1,0.4,0.1c0.2,0,0.4,0,0.7,0s0.5-0.1,0.8-0.1c0.3-0.1,0.5-0.2,0.6-0.3c0.2-0.2,0.3-0.4,0.3-0.7
			c0-0.3-0.1-0.5-0.2-0.6c-0.1-0.2-0.3-0.3-0.4-0.4c-0.2-0.1-0.4-0.2-0.7-0.3c-0.3-0.1-0.6-0.2-1-0.3c-1.1-0.3-2-0.7-2.8-1.1
			c-0.7-0.4-1.3-0.9-1.7-1.4c-0.4-0.5-0.7-1.1-0.9-1.7c-0.2-0.6-0.3-1.2-0.3-1.9c0-0.8,0.2-1.5,0.5-2.1c0.3-0.6,0.7-1.2,1.3-1.6
			c0.6-0.4,1.2-0.8,2-1c0.8-0.2,1.7-0.4,2.6-0.4c0.6,0,1.1,0,1.6,0.1c0.5,0.1,1,0.3,1.5,0.5c0.5,0.2,0.9,0.5,1.4,0.8
			c0.4,0.3,0.9,0.7,1.3,1.2c0.2,0.2,0.2,0.4,0.2,0.5c0,0.2-0.1,0.3-0.3,0.5c-0.4,0.3-0.7,0.6-1,0.9c-0.3,0.3-0.7,0.6-1,1
			c-0.1,0.1-0.2,0.2-0.3,0.2c-0.1,0-0.2,0-0.3,0c-0.1,0-0.2-0.1-0.3-0.1c-0.1-0.1-0.2-0.1-0.3-0.2c-0.3-0.4-0.7-0.6-1.1-0.7
			c-0.4-0.1-0.8-0.2-1.2-0.2c-0.5,0-0.8,0.1-1.1,0.2c-0.3,0.2-0.4,0.4-0.4,0.7c0,0.2,0.1,0.4,0.3,0.6c0.2,0.1,0.4,0.2,0.6,0.3
			c0.2,0.1,0.5,0.2,0.8,0.2c0.3,0.1,0.5,0.1,0.7,0.2c0.8,0.3,1.6,0.6,2.3,0.9c0.7,0.3,1.3,0.7,1.8,1.2c0.5,0.5,0.9,1,1.2,1.6
			c0.3,0.6,0.4,1.4,0.4,2.3c0,0.9-0.2,1.7-0.5,2.5c-0.4,0.7-0.9,1.3-1.5,1.8c-0.6,0.5-1.4,0.9-2.3,1.1c-0.9,0.3-1.8,0.4-2.8,0.4
			c-0.6,0-1.2-0.1-1.8-0.2c-0.6-0.1-1.2-0.3-1.7-0.5c-0.6-0.2-1.1-0.5-1.6-0.9c-0.5-0.4-0.9-0.8-1.3-1.3c-0.1-0.1-0.2-0.3-0.2-0.4
			c-0.1-0.1-0.1-0.3-0.1-0.4c0-0.1,0-0.3,0.1-0.4c0.1-0.1,0.1-0.2,0.2-0.3l1.8-1.8c0.2-0.2,0.4-0.3,0.6-0.2
			C150.7,113.3,150.9,113.4,151.2,113.7z"/>
			<path class="st1" d="M183.6,118.2c0,0.2,0,0.3-0.1,0.5c-0.1,0.1-0.1,0.3-0.3,0.3c-0.1,0.1-0.2,0.2-0.4,0.2c-0.1,0-0.3,0-0.4,0
			h-2.7c-0.2,0-0.4,0-0.5-0.1c-0.1-0.1-0.2-0.1-0.3-0.2c-0.1-0.1-0.1-0.2-0.2-0.3s-0.1-0.3-0.2-0.4l-0.4-1c-0.3,0.3-0.5,0.5-0.8,0.8
			c-0.3,0.3-0.6,0.5-1,0.8c-0.4,0.2-0.7,0.4-1.2,0.6s-0.9,0.2-1.3,0.2c-0.8,0-1.7-0.1-2.4-0.3c-0.8-0.2-1.5-0.5-2.2-0.9
			c-0.7-0.4-1.3-0.9-1.8-1.4c-0.5-0.6-1-1.2-1.4-1.8c-0.4-0.7-0.7-1.4-0.9-2.2c-0.2-0.8-0.3-1.6-0.3-2.5c0-1.3,0.2-2.5,0.7-3.6
			c0.5-1.1,1.1-2.1,1.9-2.9c0.8-0.8,1.8-1.5,2.9-1.9c1.1-0.5,2.3-0.7,3.5-0.7c0.6,0,1.1,0.1,1.6,0.3c0.5,0.2,0.9,0.4,1.3,0.7
			c0.4,0.3,0.8,0.6,1.1,0.9c0.3,0.4,0.6,0.7,0.9,1.1l0.5-1.7c0.1-0.2,0.2-0.4,0.2-0.6c0.1-0.1,0.1-0.3,0.2-0.3
			c0.1-0.1,0.2-0.1,0.3-0.1c0.1,0,0.2,0,0.4,0h2.1c0.1,0,0.2,0,0.4,0c0.1,0,0.3,0.1,0.4,0.2c0.1,0.1,0.2,0.2,0.3,0.3
			c0.1,0.1,0.1,0.3,0.1,0.4V118.2z M169.9,110.4c0,0.6,0.1,1.2,0.3,1.7c0.2,0.5,0.5,1,0.8,1.4c0.4,0.4,0.8,0.7,1.3,0.9
			c0.5,0.2,1,0.3,1.6,0.3c0.6,0,1.2-0.1,1.7-0.3c0.5-0.2,1-0.5,1.4-0.9c0.4-0.4,0.7-0.9,0.9-1.4c0.2-0.5,0.3-1.1,0.3-1.7
			c0-0.6-0.1-1.2-0.3-1.7c-0.2-0.5-0.5-1-0.9-1.4c-0.4-0.4-0.9-0.7-1.4-1c-0.5-0.2-1.1-0.4-1.7-0.4c-0.6,0-1.2,0.1-1.6,0.4
			c-0.5,0.2-0.9,0.6-1.3,1c-0.4,0.4-0.6,0.9-0.8,1.4C170,109.2,169.9,109.8,169.9,110.4z"/>
			<path class="st1" d="M187.2,110.4c0-0.9,0.1-1.7,0.3-2.5c0.2-0.8,0.5-1.5,0.9-2.2c0.4-0.7,0.9-1.3,1.4-1.8c0.6-0.6,1.2-1,1.8-1.4
			c0.7-0.4,1.4-0.7,2.2-0.9c0.8-0.2,1.6-0.3,2.5-0.3c1.3,0,2.4,0.2,3.6,0.7c1.1,0.5,2.1,1.1,2.9,1.9c0.8,0.8,1.5,1.8,1.9,2.9
			c0.5,1.1,0.7,2.3,0.7,3.6c0,0.9-0.1,1.7-0.3,2.5c-0.2,0.8-0.5,1.5-0.9,2.2c-0.4,0.7-0.9,1.3-1.4,1.8c-0.6,0.6-1.2,1-1.8,1.4
			c-0.7,0.4-1.4,0.7-2.2,0.9c-0.8,0.2-1.6,0.3-2.4,0.3c-0.9,0-1.7-0.1-2.5-0.3c-0.8-0.2-1.5-0.5-2.2-0.9c-0.7-0.4-1.3-0.9-1.8-1.4
			c-0.6-0.6-1-1.2-1.4-1.8c-0.4-0.7-0.7-1.4-0.9-2.2C187.3,112,187.2,111.2,187.2,110.4z M192.3,110.4c0,0.6,0.1,1.2,0.3,1.7
			c0.2,0.5,0.5,1,0.8,1.4s0.8,0.7,1.3,0.9c0.5,0.2,1.1,0.3,1.7,0.3c0.6,0,1.1-0.1,1.6-0.3c0.5-0.2,0.9-0.5,1.2-0.9
			c0.3-0.4,0.6-0.9,0.8-1.4c0.2-0.5,0.3-1.1,0.3-1.7c0-0.6-0.1-1.2-0.3-1.7c-0.2-0.5-0.4-1-0.8-1.4c-0.3-0.4-0.8-0.7-1.2-1
			c-0.5-0.2-1-0.4-1.6-0.4c-0.6,0-1.2,0.1-1.7,0.4c-0.5,0.2-0.9,0.6-1.3,1s-0.6,0.9-0.8,1.4C192.4,109.2,192.3,109.8,192.3,110.4z" />
			<path class="st1" d="M218.6,101.8c0.1-0.1,0.2-0.2,0.4-0.2c0.1,0,0.3,0,0.4,0h2.1c0.2,0,0.3,0,0.4,0.1c0.1,0.1,0.2,0.1,0.3,0.2
			c0.1,0.1,0.2,0.2,0.2,0.3c0.1,0.1,0.1,0.3,0.1,0.4l0.4,1.8c0.1-0.3,0.3-0.6,0.5-1c0.2-0.4,0.5-0.7,0.8-1c0.3-0.3,0.7-0.6,1.2-0.8
			c0.5-0.2,1.1-0.3,1.9-0.3c1.2,0,2.2,0.3,3.1,0.8c0.9,0.5,1.6,1.2,2.2,2c0.2-0.3,0.4-0.6,0.7-0.9c0.3-0.3,0.7-0.6,1.1-0.9
			c0.4-0.3,0.9-0.5,1.5-0.7c0.6-0.2,1.2-0.3,1.8-0.3c1.1,0,2,0.2,2.8,0.6c0.8,0.4,1.5,1,2.1,1.7c0.6,0.7,1,1.5,1.3,2.5
			c0.3,0.9,0.5,1.9,0.5,3v9.1c0,0.4-0.1,0.6-0.2,0.8c-0.2,0.2-0.4,0.3-0.7,0.3h-3.2c-0.4,0-0.7-0.1-0.8-0.2
			c-0.1-0.1-0.2-0.4-0.2-0.8V109c0-0.4-0.1-0.8-0.2-1.1c-0.1-0.3-0.3-0.6-0.5-0.9c-0.2-0.3-0.5-0.5-0.8-0.6
			c-0.3-0.1-0.7-0.2-1.1-0.2c-0.4,0-0.7,0.1-1,0.2c-0.3,0.1-0.6,0.3-0.8,0.6c-0.2,0.2-0.4,0.5-0.6,0.9c-0.1,0.3-0.2,0.7-0.2,1.1v9.1
			c0,0.4-0.1,0.6-0.2,0.8c-0.2,0.2-0.4,0.3-0.7,0.3h-0.3h-0.1h-2.8c-0.4,0-0.7-0.1-0.8-0.2c-0.1-0.1-0.2-0.4-0.2-0.8V109
			c0-0.4-0.1-0.8-0.2-1.1c-0.1-0.3-0.3-0.6-0.5-0.9c-0.2-0.3-0.5-0.5-0.8-0.6c-0.3-0.1-0.7-0.2-1.1-0.2c-0.3,0-0.7,0.1-1,0.2
			c-0.3,0.1-0.6,0.3-0.9,0.6c-0.3,0.2-0.5,0.5-0.6,0.9c-0.2,0.3-0.3,0.7-0.3,1.1v9.2c0,0.2,0,0.3-0.1,0.5c-0.1,0.2-0.2,0.3-0.3,0.4
			c-0.1,0.1-0.2,0.1-0.3,0.2c-0.1,0-0.2,0-0.4,0h-3.1c-0.4,0-0.7-0.1-0.9-0.3c-0.2-0.2-0.3-0.5-0.3-0.8v-15.6c0-0.2,0-0.3,0.1-0.5
			C218.4,101.9,218.5,101.8,218.6,101.8L218.6,101.8z"/>
			<path class="st1" d="M263.2,117.1c-0.8,0.8-1.7,1.3-2.8,1.8c-1,0.4-2.1,0.6-3.2,0.6c-1.3,0-2.5-0.2-3.6-0.7
			c-1.1-0.5-2.1-1.1-3-1.9c-0.9-0.8-1.5-1.8-2-2.9c-0.5-1.1-0.8-2.3-0.8-3.6c0-0.8,0.1-1.6,0.3-2.4c0.2-0.8,0.5-1.5,0.8-2.2
			c0.4-0.7,0.8-1.3,1.3-1.8c0.5-0.6,1.1-1,1.8-1.4c0.6-0.4,1.4-0.7,2.1-0.9c0.8-0.2,1.6-0.3,2.4-0.3c0.8,0,1.5,0.1,2.2,0.3
			c0.7,0.2,1.4,0.5,2,0.9c0.6,0.4,1.2,0.8,1.7,1.3c0.5,0.5,1,1.1,1.4,1.7c0.4,0.6,0.7,1.3,0.9,2c0.2,0.7,0.3,1.4,0.3,2.2
			c0,0.5,0,0.9,0,1.2c0,0.3-0.1,0.5-0.2,0.7c-0.1,0.2-0.3,0.3-0.6,0.4c-0.3,0.1-0.7,0.1-1.3,0.1h-10c0.1,0.6,0.3,1.1,0.6,1.5
			c0.3,0.4,0.6,0.7,1,1c0.4,0.2,0.8,0.4,1.2,0.5c0.4,0.1,0.8,0.2,1.2,0.2c0.3,0,0.7,0,1-0.1s0.7-0.2,1-0.3c0.3-0.1,0.6-0.3,0.9-0.4
			c0.3-0.2,0.5-0.3,0.7-0.5c0.1-0.1,0.3-0.2,0.4-0.3c0.1-0.1,0.2-0.1,0.3-0.1c0.1,0,0.2,0,0.4,0.1c0.1,0.1,0.3,0.2,0.4,0.4l1.5,1.7
			c0.1,0.1,0.2,0.2,0.2,0.3s0,0.2,0,0.3c0,0.2-0.1,0.3-0.2,0.5C263.4,116.8,263.3,117,263.2,117.1z M256.5,105.5
			c-0.4,0-0.7,0.1-1.1,0.2c-0.3,0.1-0.7,0.3-1,0.6c-0.3,0.2-0.6,0.5-0.8,0.8c-0.2,0.3-0.4,0.6-0.6,0.9h7.1c-0.2-0.4-0.4-0.7-0.6-1
			c-0.2-0.3-0.5-0.6-0.8-0.8c-0.3-0.2-0.6-0.4-1-0.5C257.4,105.5,257,105.5,256.5,105.5z"/>
		</g>
	</g>
	<path class="st2" d="M0,0v44c0.2,0,0.4,0,0.6,0c24.1,0,43.6,19.5,43.6,43.6c0,0.3,0,0.5,0,0.8h44.2C88.4,39.6,48.8,0,0,0z"/>
	<path class="st2" d="M133.2,87.6c0-24.1,19.5-43.6,43.6-43.6V0C128,0,88.4,39.6,88.4,88.4h44.8C133.2,88.1,133.2,87.9,133.2,87.6z" />
	<path class="st0" d="M176.8,44c24,0.1,43.6,19.6,43.6,43.6c0,0.3,0,0.5,0,0.8h44.8c0-48.8-39.6-88.4-88.4-88.4"/>
</svg>
